<?xml version="1.0" encoding="UTF-8"?>
<svg width="24px" height="19px" viewBox="0 0 24 19" version="1.1" xmlns="http://www.w3.org/2000/svg" xmlns:xlink="http://www.w3.org/1999/xlink">
<g stroke="none" stroke-width="1" fill="none" fill-rule="evenodd">
<path d="M19.5780016,0.724665575 L9,11.567 L9,11.567 L4.42079964,7.22602895 C4.02745932,6.85315185 3.40866778,6.86149665 3.02552564,7.24484511 L0.717652584,9.55396096 C0.327233427,9.94459036 0.327403862,10.5777553 0.71803326,10.9681745 C0.721586874,10.9717262 0.725167204,10.975251 0.728773945,10.9787488 L8.28637403,18.3079414 C8.68118162,18.690817 9.31106858,18.6830211 9.69627924,18.2904915 L23.3061389,4.42204446 C23.6903995,4.03048293 23.6874444,3.40244444 23.2995162,3.01451621 L21.0008865,0.715886512 C20.6103622,0.325362221 19.9771972,0.325362221 19.5866729,0.715886512 C19.5837645,0.718795005 19.5808739,0.721721415 19.5780016,0.724665575 Z" fill="#000" fill-rule="nonzero"></path>
</g>
</svg>